<svg version="1" xmlns="http://www.w3.org/2000/svg" width="4000" height="4000" viewBox="0 0 3000.000000 3000.000000"><path d="M1533.8 809.5c-.3.3-146 .7-323.9.8-220.3.3-331.8.7-349.9 1.5-58.2 2.5-126.6 7.6-164.5 12.2-22 2.8-39.4 5.1-44.5 6-3 .6-8.2 1.5-11.5 2-16.7 2.7-36.4 6.4-49 9.4-3.3.8-8.9 2.1-12.5 2.9-21 4.8-66.1 18.7-78.5 24.2-1.6.8-7.5 3.3-13 5.6C444 891.9 409.8 914.2 381 943c-23.4 23.3-38.2 45-53 77.5-8.3 18.2-16 47.3-20.2 77-1.7 12.2-2 21.2-2.5 69.5-.5 64.8.2 76.5 6.3 101 7.6 30.4 19.9 57.3 39 85.2 20.4 29.9 43.5 51.1 77.9 71.5 30.3 18.1 72.5 36 111.5 47.3 4.1 1.2 10 3 13 3.9l5.5 1.8-3.5.7c-5.1 1.1-23.8 6.3-37 10.3-86.4 26.2-148.7 60.8-187.8 104.3-31.2 34.7-52.5 74.5-60.7 113.2-4.7 22.1-5 26-5 80.3 0 52.3.4 61.4 4.2 87.5 8.7 61.1 30.7 110.7 67.7 152.2 58 65.2 149.9 104.5 298.6 127.8 13.1 2 34.7 4.9 61 7.9 22.3 2.6 70.7 6.6 92 7.6 6.9.3 18.6 1 26 1.5 7.4.5 33.3 1.4 57.5 2 57.2 1.2 844.9 2.2 861.4 1 6.8-.5 13.7-1.4 15.2-2.1 1.6-.6 4.2-3.2 5.9-5.7l3-4.5V1720l198.8-.1c109.3 0 199.4-.2 200.2-.3.8-.2 13-.6 27-1 64-1.8 143-8.5 183-15.6 3-.5 12.3-2.1 20.5-3.5 22-3.6 51.7-10 74-15.9 60.6-15.9 112.4-37.9 149.7-63.5 47.2-32.5 82.8-80.1 103.1-137.6 3.3-9.3 4.2-12.2 6.8-21.5 4-13.9 8.5-35.7 10.8-52 4.7-33.1 4.6-30.2 4.6-144.5s0-112.8-4.6-143c-15.1-98.5-63.9-173.2-144.4-221.3-13-7.7-38-20.3-52-26.2-5.5-2.3-11.3-4.7-13-5.5-9.2-4-50.4-17.6-63.5-20.9-1.4-.4-8.6-2.2-16-4.2-14-3.6-40.3-9.4-54.7-11.9-19.8-3.5-26.6-4.7-39.8-6.6-54-7.9-101.8-11.7-180.4-14.4-36.5-1.2-96.7-1.5-338.6-1.5-161.8 0-294.4.2-294.7.5zm-210 399.3l.2 139.3-208.7-.4c-179.9-.3-211.4-.6-227.8-2-78.8-6.6-112.1-19-132.4-49.7-13.4-20.2-17.1-38.5-17.1-85 0-48 4.2-67.5 19.3-90 4.8-7.1 19.7-21.1 27.3-25.6 12.9-7.6 35.3-14.9 58.9-19.3 12.5-2.2 41.7-5.2 60-6 10.5-.4 109.2-.8 219.5-.7l200.5.1.3 139.3zm842.3-129.3c11.2.8 23.6 2 27.4 2.6 49.5 7.7 76.6 18.9 98 40.4 15.8 15.8 25.6 34.3 31.2 59.3 1.6 7 1.8 14.8 1.8 83.7 0 69.4-.2 76.6-1.8 83.5-6.1 25.8-14.3 40.9-32 58.8-14.8 15.1-34.6 25.6-60.7 32.4-14.4 3.8-18.4 4.6-32.5 6.7-29 4.4-39.7 4.6-245 4.6h-195l-.3-186.8-.2-186.7h194.4c162.7 0 197.7.2 214.7 1.5zm-842.3 687.3l.2 148.3-230.7-.4c-153.3-.3-234.3-.8-241.3-1.5-5.8-.6-15.2-1.6-21-2.1-32.6-3.2-64.4-11-81.8-20.1-21.4-11.1-38.6-33.2-45.5-58.5-4.9-17.8-5.2-21.5-5.2-63.5.1-33.8.3-40.8 1.9-48.5 2.4-12.2 5.2-21.8 8.7-29.3 1.6-3.5 2.9-6.6 2.9-6.9 0-.3 2.9-4.9 6.4-10.2 7-10.5 18.1-22.1 26.4-27.7 16.4-11 42.8-19 79.3-24 29.2-3.9 43.8-4.2 275.9-4l223.5.1.3 148.3z"/></svg>